<?xml version="1.0" encoding="UTF-8"?>
<svg width="20px" height="20px" viewBox="0 0 20 20" version="1.1" xmlns="http://www.w3.org/2000/svg" xmlns:xlink="http://www.w3.org/1999/xlink">
    <!-- Generator: Sketch 54.1 (76490) - https://sketchapp.com -->
    <title>sns/google</title>
    <desc>Created with Sketch.</desc>
    <g id="sns/google" stroke="none" stroke-width="1" fill="none" fill-rule="evenodd">
        <g id="icons8-google" fill-rule="nonzero">
            <path d="M19.8046875,8.0410155 L19,8.0410155 L19,8 L10,8 L10,12 L15.652344,12 C14.826172,14.328125 12.611328,16 10,16 C6.685547,16 4,13.314453 4,10 C4,6.685547 6.685547,4 10,4 C11.529297,4 12.921875,4.576172 13.980469,5.5195315 L16.808594,2.6914065 C15.0234375,1.027344 12.6347655,0 10,0 C4.4765625,0 0,4.4765625 0,10 C0,15.5234375 4.4765625,20 10,20 C15.5234375,20 20,15.5234375 20,10 C20,9.330078 19.9316405,8.6757815 19.8046875,8.0410155 Z" id="Path" fill="#FFC107"></path>
            <path d="M1.152344,5.345703 L4.439453,7.7558595 C5.328125,5.5546875 7.480469,4 10,4 C11.529297,4 12.921875,4.576172 13.980469,5.5195315 L16.808594,2.6914065 C15.0234375,1.027344 12.6347655,0 10,0 C6.158203,0 2.828125,2.167969 1.152344,5.345703 Z" id="Path" fill="#FF3D00"></path>
            <path d="M10,20 C12.5820315,20 14.9296875,19.011719 16.705078,17.404297 L13.609375,14.7851565 C12.605469,15.544922 11.357422,16 10,16 C7.3984375,16 5.1914065,14.341797 4.359375,12.027344 L1.0976565,14.5390625 C2.751953,17.777344 6.1132815,20 10,20 Z" id="Path" fill="#4CAF50"></path>
            <path d="M19.8046875,8.0410155 L19,8.0410155 L19,8 L10,8 L10,12 L15.652344,12 C15.2558595,13.1191405 14.5351565,14.0820315 13.607422,14.7851565 C13.609375,14.7851565 13.609375,14.7851565 13.609375,14.7851565 L16.705078,17.404297 C16.486328,17.6015625 20,15 20,10 C20,9.330078 19.9316405,8.6757815 19.8046875,8.0410155 Z" id="Path" fill="#1976D2"></path>
        </g>
    </g>
</svg>