<?xml version="1.0" encoding="UTF-8"?>
<svg width="16px" height="15px" viewBox="0 0 16 15" version="1.1" xmlns="http://www.w3.org/2000/svg" xmlns:xlink="http://www.w3.org/1999/xlink">
    <!-- Generator: Sketch 47.1 (45422) - http://www.bohemiancoding.com/sketch -->
    <title>Line Copy</title>
    <desc>Created with Sketch.</desc>
    <defs></defs>
    <g id="Symbols" stroke="none" stroke-width="1" fill="none" fill-rule="evenodd">
        <g id="Line-Copy" fill-rule="nonzero" fill="#FFFFFF">
            <path d="M15.2496,6.1184 C15.2496,7.4224 14.744,8.5992 13.688,9.7568 L13.6888,9.7568 C12.1608,11.5152 8.7448,13.6592 7.9672,13.9864 C7.1896,14.3128 7.304,13.776 7.336,13.5904 C7.3544,13.484 7.44,12.9704 7.44,12.9704 C7.4648,12.7848 7.4904,12.4968 7.4168,12.3112 C7.3352,12.1064 7.0128,12.0032 6.7752,11.9496 C3.276,11.4904 0.6856,9.044 0.6856,6.1184 C0.6856,2.8608 3.9528,0.2088 7.968,0.2088 C11.9832,0.2088 15.2496,2.8608 15.2496,6.1184 Z M6.488,4.5456 L5.9776,4.5456 C5.8992,4.5456 5.8352,4.6088 5.8352,4.6872 L5.8352,7.8616 C5.8352,7.94 5.8992,8.0032 5.9776,8.0032 L6.488,8.0032 C6.5664,8.0032 6.6296,7.9392 6.6296,7.8616 L6.6296,4.6872 C6.6296,4.6088 6.5664,4.5456 6.488,4.5456 Z M10.004,4.5456 L9.4928,4.5456 C9.4136,4.5456 9.3504,4.6088 9.3504,4.6872 L9.3504,6.5728 L7.8968,4.6088 C7.8936,4.604 7.8896,4.5992 7.8856,4.5944 L7.8848,4.5944 C7.8816,4.5896 7.8792,4.5848 7.876,4.5848 C7.8752,4.5848 7.8744,4.5848 7.8736,4.58 C7.8712,4.58 7.8688,4.58 7.8664,4.5752 C7.8656,4.5752 7.864,4.5752 7.8624,4.5752 C7.86,4.5704 7.8576,4.5704 7.8552,4.5704 C7.8544,4.5656 7.8528,4.5656 7.8512,4.5656 C7.8488,4.5656 7.8464,4.5608 7.844,4.5608 C7.8424,4.5608 7.8416,4.5608 7.84,4.5608 C7.8376,4.556 7.8344,4.556 7.832,4.556 C7.8304,4.556 7.8288,4.556 7.8272,4.556 C7.8248,4.5512 7.8216,4.5512 7.8184,4.5512 C7.8168,4.5512 7.8152,4.5512 7.8136,4.5512 C7.8112,4.5512 7.808,4.5512 7.8056,4.5464 C7.804,4.5464 7.8016,4.5464 7.8,4.5464 C7.7976,4.5464 7.7952,4.5464 7.792,4.5464 C7.7896,4.5464 7.7872,4.5464 7.7848,4.5464 C7.7832,4.5464 7.7816,4.5464 7.78,4.5464 L7.2696,4.5464 C7.1912,4.5464 7.1272,4.6096 7.1272,4.688 L7.1272,7.8624 C7.1272,7.9408 7.1912,8.004 7.2696,8.004 L7.78,8.004 C7.8584,8.004 7.9216,7.94 7.9216,7.8624 L7.9216,5.9776 L9.3776,7.9408 C9.388,7.956 9.4,7.9704 9.4136,7.98 C9.4144,7.98 9.4152,7.98 9.4152,7.98 C9.4184,7.98 9.4216,7.9848 9.4248,7.9848 C9.4256,7.9848 9.4264,7.9848 9.428,7.9848 C9.4304,7.9896 9.4328,7.9896 9.4352,7.9896 C9.4376,7.9896 9.4392,7.9896 9.4424,7.9944 C9.444,7.9944 9.4456,7.9944 9.4472,7.9944 C9.4504,7.9944 9.4536,7.9944 9.4568,7.9992 L9.4584,7.9992 C9.4704,7.9992 9.4824,8.004 9.4952,8.004 L10.0064,8.004 C10.0848,8.004 10.148,7.94 10.148,7.8624 L10.148,4.6872 C10.1456,4.6088 10.0824,4.5456 10.004,4.5456 Z M5.2568,7.2072 L3.8688,7.2072 L3.8688,4.6872 C3.8688,4.6088 3.8056,4.5456 3.7272,4.5456 L3.2168,4.5456 C3.1384,4.5456 3.0752,4.6088 3.0752,4.6872 L3.0752,7.8616 C3.0752,7.9008 3.0904,7.9352 3.1144,7.9592 C3.1152,7.9592 3.1152,7.9592 3.116,7.9592 C3.1168,7.9592 3.1176,7.9592 3.1184,7.964 C3.144,7.988 3.1784,8.0032 3.216,8.0032 L5.256,8.0032 C5.3344,8.0032 5.3976,7.9392 5.3976,7.8616 L5.3976,7.3488 C5.3984,7.2712 5.3352,7.2072 5.2568,7.2072 Z M12.824,5.3416 C12.9024,5.3416 12.9656,5.2776 12.9656,5.2 L12.9656,4.6872 C12.9656,4.6088 12.9024,4.5456 12.824,4.5456 L10.7832,4.5456 C10.7448,4.5456 10.7104,4.56 10.6848,4.5848 C10.684,4.5848 10.684,4.5848 10.6832,4.5848 C10.6824,4.5896 10.6816,4.5896 10.6808,4.5896 C10.6568,4.6144 10.6416,4.648 10.6416,4.6872 L10.6416,7.8616 C10.6416,7.9008 10.6568,7.9352 10.6808,7.9592 C10.6816,7.9592 10.6824,7.9592 10.6832,7.9592 C10.684,7.9592 10.6848,7.9592 10.6856,7.964 C10.7104,7.988 10.7448,8.0032 10.7832,8.0032 L12.824,8.0032 C12.9024,8.0032 12.9656,7.9392 12.9656,7.8616 L12.9656,7.3488 C12.9656,7.2704 12.9024,7.2072 12.824,7.2072 L11.4368,7.2072 L11.4368,6.6704 L12.824,6.6704 C12.9024,6.6704 12.9656,6.6064 12.9656,6.5288 L12.9656,6.016 C12.9656,5.9376 12.9024,5.8744 12.824,5.8744 L11.4368,5.8744 L11.4368,5.3416 L12.824,5.3416 Z" id="Combined-Shape"></path>
        </g>
    </g>
</svg>