<svg width="24" height="24" xmlns="http://www.w3.org/2000/svg">
    <g fill="none" fill-rule="evenodd">
        <path d="M24 12.073C24 5.405 18.627 0 12 0S0 5.405 0 12.073C0 18.1 4.388 23.094 10.125 24v-8.437H7.078v-3.49h3.047v-2.66c0-3.025 1.791-4.697 4.533-4.697 1.313 0 2.686.236 2.686.236v2.971H15.83c-1.491 0-1.956.93-1.956 1.886v2.264h3.328l-.532 3.49h-2.796V24C19.612 23.094 24 18.1 24 12.073" fill="#FFF"/>
        <path d="M16.671 15.469 17.203 12h-3.328V9.749c0-.949.465-1.874 1.956-1.874h1.513V4.922s-1.374-.235-2.686-.235c-2.741 0-4.533 1.662-4.533 4.67V12H7.078v3.469h3.047v8.385a12.089 12.089 0 0 0 3.75 0V15.47h2.796z" fill="#0078F6"/>
    </g>
</svg>
